<?xml version="1.0" encoding="UTF-8" standalone="no"?>
<!-- Created with Inkscape (http://www.inkscape.org/) -->

<svg
   xmlns:dc="http://purl.org/dc/elements/1.1/"
   xmlns:cc="http://creativecommons.org/ns#"
   xmlns:rdf="http://www.w3.org/1999/02/22-rdf-syntax-ns#"
   xmlns:svg="http://www.w3.org/2000/svg"
   xmlns="http://www.w3.org/2000/svg"
   xmlns:sodipodi="http://sodipodi.sourceforge.net/DTD/sodipodi-0.dtd"
   xmlns:inkscape="http://www.inkscape.org/namespaces/inkscape"
   width="350.00003"
   height="400"
   id="svg2"
   version="1.1"
   inkscape:version="0.48.4 r9939"
   sodipodi:docname="length-mid_2-bound.svg">
  <defs
     id="defs4">
    <inkscape:perspective
       sodipodi:type="inkscape:persp3d"
       inkscape:vp_x="0 : 526.18109 : 1"
       inkscape:vp_y="0 : 1000 : 0"
       inkscape:vp_z="744.09448 : 526.18109 : 1"
       inkscape:persp3d-origin="372.04724 : 350.78739 : 1"
       id="perspective2987" />
  </defs>
  <sodipodi:namedview
     id="base"
     pagecolor="#ffffff"
     bordercolor="#666666"
     borderopacity="1.0"
     inkscape:pageopacity="0.0"
     inkscape:pageshadow="2"
     inkscape:zoom="1.3094351"
     inkscape:cx="185.00913"
     inkscape:cy="246.992"
     inkscape:document-units="px"
     inkscape:current-layer="layer1"
     showgrid="true"
     inkscape:snap-grids="false"
     inkscape:snap-global="true"
     gridtolerance="10000"
     inkscape:snap-to-guides="false"
     objecttolerance="10000"
     guidetolerance="10000"
     inkscape:snap-page="false"
     inkscape:window-width="1280"
     inkscape:window-height="1004"
     inkscape:window-x="-2"
     inkscape:window-y="-3"
     inkscape:window-maximized="1"
     fit-margin-top="0"
     fit-margin-left="0"
     fit-margin-right="0"
     fit-margin-bottom="0">
    <inkscape:grid
       type="xygrid"
       id="grid3007"
       empspacing="5"
       visible="true"
       enabled="true"
       snapvisiblegridlinesonly="true"
       spacingx="50px"
       spacingy="50px"
       originx="-100px"
       originy="-600.00001px" />
  </sodipodi:namedview>
  <metadata
     id="metadata7">
    <rdf:RDF>
      <cc:Work
         rdf:about="">
        <dc:format>image/svg+xml</dc:format>
        <dc:type
           rdf:resource="http://purl.org/dc/dcmitype/StillImage" />
        <dc:title></dc:title>
      </cc:Work>
    </rdf:RDF>
  </metadata>
  <g
     inkscape:label="Layer 1"
     inkscape:groupmode="layer"
     id="layer1"
     style="display:inline"
     transform="translate(-100,-52.362175)">
    <rect
       style="fill:#f9f9f9;stroke:#000000;stroke-width:0.98039216;stroke-miterlimit:4;stroke-opacity:1;stroke-dasharray:none"
       id="rect3009"
       width="49.019608"
       height="49.019608"
       x="-101.87199"
       y="150.49019"
       transform="matrix(0,-1,1,0,0,0)" />
    <rect
       style="fill:#f9f9f9;stroke:#000000;stroke-width:1.01957643;stroke-miterlimit:4;stroke-opacity:1;stroke-dasharray:none;display:inline"
       id="rect3009-4"
       width="48.980423"
       height="48.980423"
       x="-101.8524"
       y="100.50979"
       transform="matrix(0,-1,1,0,0,0)" />
    <rect
       style="fill:#f9f9f9;stroke:#000000;stroke-width:0.98039216;stroke-miterlimit:4;stroke-opacity:1;stroke-dasharray:none;display:inline"
       id="rect3009-1"
       width="49.019608"
       height="49.019608"
       x="-101.87198"
       y="250.49019"
       transform="matrix(0,-1,1,0,0,0)" />
    <rect
       style="fill:#f9f9f9;stroke:#000000;stroke-width:1.01957643;stroke-miterlimit:4;stroke-opacity:1;stroke-dasharray:none;display:inline"
       id="rect3009-4-3"
       width="48.980423"
       height="48.980423"
       x="-101.85239"
       y="200.50978"
       transform="matrix(0,-1,1,0,0,0)" />
    <rect
       style="fill:#f9f9f9;stroke:#000000;stroke-width:0.98039216;stroke-miterlimit:4;stroke-opacity:1;stroke-dasharray:none;display:inline"
       id="rect3009-8"
       width="49.019608"
       height="49.019608"
       x="-101.87198"
       y="350.49017"
       transform="matrix(0,-1,1,0,0,0)" />
    <rect
       style="fill:#f9f9f9;stroke:#000000;stroke-width:1.01957643;stroke-miterlimit:4;stroke-opacity:1;stroke-dasharray:none;display:inline"
       id="rect3009-4-37"
       width="48.980423"
       height="48.980423"
       x="-101.85239"
       y="300.5098"
       transform="matrix(0,-1,1,0,0,0)" />
    <rect
       style="fill:#f9f9f9;stroke:#000000;stroke-width:1.01957643;stroke-miterlimit:4;stroke-opacity:1;stroke-dasharray:none;display:inline"
       id="rect3009-4-9"
       width="48.980423"
       height="48.980423"
       x="-101.85239"
       y="400.5098"
       transform="matrix(0,-1,1,0,0,0)" />
    <rect
       style="fill:#f9f9f9;stroke:#000000;stroke-width:0.98039215999999996;stroke-miterlimit:4;stroke-opacity:1;stroke-dasharray:none;display:inline"
       id="rect3009-22"
       width="49.019608"
       height="49.019608"
       x="-151.87199"
       y="150.49019"
       transform="matrix(0,-1,1,0,0,0)" />
    <rect
       style="fill:#000000;stroke:#000000;stroke-width:1.01957643000000009;stroke-miterlimit:4;stroke-opacity:1;stroke-dasharray:none;display:inline"
       id="rect3009-4-93"
       width="48.980423"
       height="48.980423"
       x="-151.8524"
       y="100.50979"
       transform="matrix(0,-1,1,0,0,0)" />
    <rect
       style="fill:#f9f9f9;stroke:#000000;stroke-width:0.98039216;stroke-miterlimit:4;stroke-opacity:1;stroke-dasharray:none;display:inline"
       id="rect3009-1-9"
       width="49.019608"
       height="49.019608"
       x="-151.87198"
       y="250.49017"
       transform="matrix(0,-1,1,0,0,0)" />
    <rect
       style="fill:#f9f9f9;stroke:#000000;stroke-width:1.01957643;stroke-miterlimit:4;stroke-opacity:1;stroke-dasharray:none;display:inline"
       id="rect3009-4-3-0"
       width="48.980423"
       height="48.980423"
       x="-151.85239"
       y="200.50977"
       transform="matrix(0,-1,1,0,0,0)" />
    <rect
       style="fill:#f9f9f9;stroke:#000000;stroke-width:0.98039215999999996;stroke-miterlimit:4;stroke-opacity:1;stroke-dasharray:none;display:inline"
       id="rect3009-8-1"
       width="49.019608"
       height="49.019608"
       x="-151.87198"
       y="350.49017"
       transform="matrix(0,-1,1,0,0,0)" />
    <rect
       style="fill:#f9f9f9;stroke:#000000;stroke-width:1.01957643;stroke-miterlimit:4;stroke-opacity:1;stroke-dasharray:none;display:inline"
       id="rect3009-4-37-9"
       width="48.980423"
       height="48.980423"
       x="-151.85239"
       y="300.5098"
       transform="matrix(0,-1,1,0,0,0)" />
    <rect
       style="fill:#000000;stroke:#000000;stroke-width:1.01957643000000009;stroke-miterlimit:4;stroke-opacity:1;stroke-dasharray:none;display:inline"
       id="rect3009-4-9-8"
       width="48.980423"
       height="48.980423"
       x="-151.85239"
       y="400.5098"
       transform="matrix(0,-1,1,0,0,0)" />
    <rect
       style="fill:#f9f9f9;stroke:#000000;stroke-width:0.98039215999999996;stroke-miterlimit:4;stroke-opacity:1;stroke-dasharray:none;display:inline"
       id="rect3009-6"
       width="49.019608"
       height="49.019611"
       x="-201.87199"
       y="150.49019"
       transform="matrix(0,-1,1,0,0,0)" />
    <rect
       style="fill:#000000;stroke:#000000;stroke-width:1.01957643000000009;stroke-miterlimit:4;stroke-opacity:1;stroke-dasharray:none;display:inline"
       id="rect3009-4-5"
       width="48.980423"
       height="48.980427"
       x="-201.8524"
       y="100.50979"
       transform="matrix(0,-1,1,0,0,0)" />
    <rect
       style="fill:#808080;stroke:#000000;stroke-width:0.98039215999999996;stroke-miterlimit:4;stroke-opacity:1;stroke-dasharray:none;display:inline"
       id="rect3009-1-4"
       width="49.019608"
       height="49.019611"
       x="-201.87199"
       y="250.4902"
       transform="matrix(0,-1,1,0,0,0)" />
    <rect
       style="fill:#f9f9f9;stroke:#000000;stroke-width:1.01957643000000009;stroke-miterlimit:4;stroke-opacity:1;stroke-dasharray:none;display:inline"
       id="rect3009-4-3-9"
       width="48.980423"
       height="48.980427"
       x="-201.8524"
       y="200.50978"
       transform="matrix(0,-1,1,0,0,0)" />
    <rect
       style="fill:#f9f9f9;stroke:#000000;stroke-width:0.98039215999999996;stroke-miterlimit:4;stroke-opacity:1;stroke-dasharray:none;display:inline"
       id="rect3009-8-7"
       width="49.019608"
       height="49.019611"
       x="-201.87199"
       y="350.49017"
       transform="matrix(0,-1,1,0,0,0)" />
    <rect
       style="fill:#f9f9f9;stroke:#000000;stroke-width:1.01957643;stroke-miterlimit:4;stroke-opacity:1;stroke-dasharray:none;display:inline"
       id="rect3009-4-37-8"
       width="48.980423"
       height="48.980427"
       x="-201.8524"
       y="300.5098"
       transform="matrix(0,-1,1,0,0,0)" />
    <rect
       style="fill:#000000;stroke:#000000;stroke-width:1.01957643000000009;stroke-miterlimit:4;stroke-opacity:1;stroke-dasharray:none;display:inline"
       id="rect3009-4-9-2"
       width="48.980423"
       height="48.980427"
       x="-201.8524"
       y="400.50983"
       transform="matrix(0,-1,1,0,0,0)" />
    <rect
       style="fill:#f9f9f9;stroke:#000000;stroke-width:0.98039215999999996;stroke-miterlimit:4;stroke-opacity:1;stroke-dasharray:none;display:inline"
       id="rect3009-85"
       width="49.019608"
       height="49.019608"
       x="-251.87199"
       y="150.49019"
       transform="matrix(0,-1,1,0,0,0)" />
    <rect
       style="fill:#000000;stroke:#000000;stroke-width:1.01957643000000009;stroke-miterlimit:4;stroke-opacity:1;stroke-dasharray:none;display:inline"
       id="rect3009-4-92"
       width="48.980423"
       height="48.980423"
       x="-251.8524"
       y="100.50979"
       transform="matrix(0,-1,1,0,0,0)" />
    <rect
       style="fill:#808080;stroke:#000000;stroke-width:0.98039215999999996;stroke-miterlimit:4;stroke-opacity:1;stroke-dasharray:none;display:inline"
       id="rect3009-1-6"
       width="49.019608"
       height="49.019608"
       x="-251.87196"
       y="250.49019"
       transform="matrix(0,-1,1,0,0,0)" />
    <rect
       style="fill:#808080;stroke:#000000;stroke-width:1.01957643000000009;stroke-miterlimit:4;stroke-opacity:1;stroke-dasharray:none;display:inline"
       id="rect3009-4-3-04"
       width="48.980423"
       height="48.980423"
       x="-251.85237"
       y="200.50978"
       transform="matrix(0,-1,1,0,0,0)" />
    <rect
       style="fill:#f9f9f9;stroke:#000000;stroke-width:0.98039215999999996;stroke-miterlimit:4;stroke-opacity:1;stroke-dasharray:none;display:inline"
       id="rect3009-8-9"
       width="49.019608"
       height="49.019608"
       x="-251.87196"
       y="350.49017"
       transform="matrix(0,-1,1,0,0,0)" />
    <rect
       style="fill:#808080;stroke:#000000;stroke-width:1.01957643000000009;stroke-miterlimit:4;stroke-opacity:1;stroke-dasharray:none;display:inline"
       id="rect3009-4-37-92"
       width="48.980423"
       height="48.980423"
       x="-251.85237"
       y="300.5098"
       transform="matrix(0,-1,1,0,0,0)" />
    <rect
       style="fill:#000000;stroke:#000000;stroke-width:1.01957643000000009;stroke-miterlimit:4;stroke-opacity:1;stroke-dasharray:none;display:inline"
       id="rect3009-4-9-3"
       width="48.980423"
       height="48.980423"
       x="-251.85237"
       y="400.5098"
       transform="matrix(0,-1,1,0,0,0)" />
    <rect
       style="fill:#808080;stroke:#000000;stroke-width:0.98039215999999996;stroke-miterlimit:4;stroke-opacity:1;stroke-dasharray:none;display:inline"
       id="rect3009-9"
       width="49.019608"
       height="49.019608"
       x="-301.87198"
       y="150.49019"
       transform="matrix(0,-1,1,0,0,0)" />
    <rect
       style="fill:#000000;stroke:#000000;stroke-width:1.01957643000000009;stroke-miterlimit:4;stroke-opacity:1;stroke-dasharray:none;display:inline"
       id="rect3009-4-0"
       width="48.980423"
       height="48.980423"
       x="-301.85239"
       y="100.50979"
       transform="matrix(0,-1,1,0,0,0)" />
    <rect
       style="fill:#f9f9f9;stroke:#000000;stroke-width:0.98039215999999996;stroke-miterlimit:4;stroke-opacity:1;stroke-dasharray:none;display:inline"
       id="rect3009-1-60"
       width="49.019608"
       height="49.019608"
       x="-301.87198"
       y="250.49019"
       transform="matrix(0,-1,1,0,0,0)" />
    <rect
       style="fill:#808080;stroke:#000000;stroke-width:1.01957643;stroke-miterlimit:4;stroke-opacity:1;stroke-dasharray:none;display:inline"
       id="rect3009-4-3-3"
       width="48.980423"
       height="48.980423"
       x="-301.85239"
       y="200.50978"
       transform="matrix(0,-1,1,0,0,0)" />
    <rect
       style="fill:#808080;stroke:#000000;stroke-width:0.98039215999999996;stroke-miterlimit:4;stroke-opacity:1;stroke-dasharray:none;display:inline"
       id="rect3009-8-5"
       width="49.019608"
       height="49.019608"
       x="-301.87198"
       y="350.49017"
       transform="matrix(0,-1,1,0,0,0)" />
    <rect
       style="fill:#808080;stroke:#000000;stroke-width:1.01957643;stroke-miterlimit:4;stroke-opacity:1;stroke-dasharray:none;display:inline"
       id="rect3009-4-37-2"
       width="48.980423"
       height="48.980423"
       x="-301.85239"
       y="300.5098"
       transform="matrix(0,-1,1,0,0,0)" />
    <rect
       style="fill:#000000;stroke:#000000;stroke-width:1.01957643000000009;stroke-miterlimit:4;stroke-opacity:1;stroke-dasharray:none;display:inline"
       id="rect3009-4-9-6"
       width="48.980423"
       height="48.980423"
       x="-301.85239"
       y="400.5098"
       transform="matrix(0,-1,1,0,0,0)" />
    <rect
       style="fill:#f9f9f9;stroke:#000000;stroke-width:0.98039215999999996;stroke-miterlimit:4;stroke-opacity:1;stroke-dasharray:none;display:inline"
       id="rect3009-22-2"
       width="49.019608"
       height="49.019608"
       x="-351.87198"
       y="150.49019"
       transform="matrix(0,-1,1,0,0,0)" />
    <rect
       style="fill:#000000;stroke:#000000;stroke-width:1.01957643000000009;stroke-miterlimit:4;stroke-opacity:1;stroke-dasharray:none;display:inline"
       id="rect3009-4-93-4"
       width="48.980423"
       height="48.980423"
       x="-351.85239"
       y="100.50979"
       transform="matrix(0,-1,1,0,0,0)" />
    <rect
       style="fill:#f9f9f9;stroke:#000000;stroke-width:0.98039216;stroke-miterlimit:4;stroke-opacity:1;stroke-dasharray:none;display:inline"
       id="rect3009-1-9-4"
       width="49.019608"
       height="49.019608"
       x="-351.87198"
       y="250.49017"
       transform="matrix(0,-1,1,0,0,0)" />
    <rect
       style="fill:#f9f9f9;stroke:#000000;stroke-width:1.01957643;stroke-miterlimit:4;stroke-opacity:1;stroke-dasharray:none;display:inline"
       id="rect3009-4-3-0-7"
       width="48.980423"
       height="48.980423"
       x="-351.85239"
       y="200.50977"
       transform="matrix(0,-1,1,0,0,0)" />
    <rect
       style="fill:#f9f9f9;stroke:#000000;stroke-width:0.98039215999999996;stroke-miterlimit:4;stroke-opacity:1;stroke-dasharray:none;display:inline"
       id="rect3009-8-1-8"
       width="49.019608"
       height="49.019608"
       x="-351.87198"
       y="350.49017"
       transform="matrix(0,-1,1,0,0,0)" />
    <rect
       style="fill:#f9f9f9;stroke:#000000;stroke-width:1.01957643000000009;stroke-miterlimit:4;stroke-opacity:1;stroke-dasharray:none;display:inline"
       id="rect3009-4-37-9-5"
       width="48.980423"
       height="48.980423"
       x="-351.85239"
       y="300.5098"
       transform="matrix(0,-1,1,0,0,0)" />
    <rect
       style="fill:#000000;stroke:#000000;stroke-width:1.01957643000000009;stroke-miterlimit:4;stroke-opacity:1;stroke-dasharray:none;display:inline"
       id="rect3009-4-9-8-8"
       width="48.980423"
       height="48.980423"
       x="-351.85239"
       y="400.5098"
       transform="matrix(0,-1,1,0,0,0)" />
    <rect
       style="fill:#f9f9f9;stroke:#000000;stroke-width:0.98039215999999996;stroke-miterlimit:4;stroke-opacity:1;stroke-dasharray:none;display:inline"
       id="rect3009-6-7"
       width="49.019608"
       height="49.019611"
       x="-401.87198"
       y="150.49019"
       transform="matrix(0,-1,1,0,0,0)" />
    <rect
       style="fill:#000000;stroke:#000000;stroke-width:1.01957643000000009;stroke-miterlimit:4;stroke-opacity:1;stroke-dasharray:none;display:inline"
       id="rect3009-4-5-8"
       width="48.980423"
       height="48.980427"
       x="-401.85239"
       y="100.50979"
       transform="matrix(0,-1,1,0,0,0)" />
    <rect
       style="fill:#f9f9f9;stroke:#000000;stroke-width:0.98039216;stroke-miterlimit:4;stroke-opacity:1;stroke-dasharray:none;display:inline"
       id="rect3009-1-4-8"
       width="49.019608"
       height="49.019611"
       x="-401.87198"
       y="250.4902"
       transform="matrix(0,-1,1,0,0,0)" />
    <rect
       style="fill:#f9f9f9;stroke:#000000;stroke-width:1.01957643;stroke-miterlimit:4;stroke-opacity:1;stroke-dasharray:none;display:inline"
       id="rect3009-4-3-9-4"
       width="48.980423"
       height="48.980427"
       x="-401.85239"
       y="200.50978"
       transform="matrix(0,-1,1,0,0,0)" />
    <rect
       style="fill:#f9f9f9;stroke:#000000;stroke-width:0.98039215999999996;stroke-miterlimit:4;stroke-opacity:1;stroke-dasharray:none;display:inline"
       id="rect3009-8-7-9"
       width="49.019608"
       height="49.019611"
       x="-401.87198"
       y="350.49017"
       transform="matrix(0,-1,1,0,0,0)" />
    <rect
       style="fill:#f9f9f9;stroke:#000000;stroke-width:1.01957643;stroke-miterlimit:4;stroke-opacity:1;stroke-dasharray:none;display:inline"
       id="rect3009-4-37-8-0"
       width="48.980423"
       height="48.980427"
       x="-401.85239"
       y="300.5098"
       transform="matrix(0,-1,1,0,0,0)" />
    <rect
       style="fill:#000000;stroke:#000000;stroke-width:1.01957643000000009;stroke-miterlimit:4;stroke-opacity:1;stroke-dasharray:none;display:inline"
       id="rect3009-4-9-2-2"
       width="48.980423"
       height="48.980427"
       x="-401.85239"
       y="400.50983"
       transform="matrix(0,-1,1,0,0,0)" />
    <rect
       style="fill:#f9f9f9;stroke:#000000;stroke-width:0.98039216;stroke-miterlimit:4;stroke-opacity:1;stroke-dasharray:none;display:inline"
       id="rect3009-85-4"
       width="49.019608"
       height="49.019608"
       x="-451.87198"
       y="150.49019"
       transform="matrix(0,-1,1,0,0,0)" />
    <rect
       style="fill:#f9f9f9;stroke:#000000;stroke-width:1.01957643;stroke-miterlimit:4;stroke-opacity:1;stroke-dasharray:none;display:inline"
       id="rect3009-4-92-2"
       width="48.980423"
       height="48.980423"
       x="-451.85239"
       y="100.50979"
       transform="matrix(0,-1,1,0,0,0)" />
    <rect
       style="fill:#f9f9f9;stroke:#000000;stroke-width:0.98039216;stroke-miterlimit:4;stroke-opacity:1;stroke-dasharray:none;display:inline"
       id="rect3009-1-6-1"
       width="49.019608"
       height="49.019608"
       x="-451.87195"
       y="250.49019"
       transform="matrix(0,-1,1,0,0,0)" />
    <rect
       style="fill:#f9f9f9;stroke:#000000;stroke-width:1.01957643;stroke-miterlimit:4;stroke-opacity:1;stroke-dasharray:none;display:inline"
       id="rect3009-4-3-04-8"
       width="48.980423"
       height="48.980423"
       x="-451.85236"
       y="200.50978"
       transform="matrix(0,-1,1,0,0,0)" />
    <rect
       style="fill:#f9f9f9;stroke:#000000;stroke-width:0.98039216;stroke-miterlimit:4;stroke-opacity:1;stroke-dasharray:none;display:inline"
       id="rect3009-8-9-0"
       width="49.019608"
       height="49.019608"
       x="-451.87195"
       y="350.49017"
       transform="matrix(0,-1,1,0,0,0)" />
    <rect
       style="fill:#f9f9f9;stroke:#000000;stroke-width:1.01957643;stroke-miterlimit:4;stroke-opacity:1;stroke-dasharray:none;display:inline"
       id="rect3009-4-37-92-5"
       width="48.980423"
       height="48.980423"
       x="-451.85236"
       y="300.5098"
       transform="matrix(0,-1,1,0,0,0)" />
    <rect
       style="fill:#f9f9f9;stroke:#000000;stroke-width:1.01957643;stroke-miterlimit:4;stroke-opacity:1;stroke-dasharray:none;display:inline"
       id="rect3009-4-9-3-1"
       width="48.980423"
       height="48.980423"
       x="-451.85236"
       y="400.5098"
       transform="matrix(0,-1,1,0,0,0)" />
    <text
       xml:space="preserve"
       style="font-size:40px;font-style:normal;font-weight:normal;line-height:125%;letter-spacing:0px;word-spacing:0px;fill:#000000;fill-opacity:1;stroke:none;font-family:Bitstream Vera Sans"
       x="361.22446"
       y="291.72885"
       id="text3233"
       sodipodi:linespacing="125%"><tspan
         sodipodi:role="line"
         id="tspan3235"
         x="361.22446"
         y="291.72885">C</tspan></text>
    <text
       xml:space="preserve"
       style="font-size:40px;font-style:normal;font-weight:normal;line-height:125%;letter-spacing:0px;word-spacing:0px;fill:#000000;fill-opacity:1;stroke:none;display:inline;font-family:Bitstream Vera Sans"
       x="158.5896"
       y="292.543"
       id="text3233-4"
       sodipodi:linespacing="125%"><tspan
         sodipodi:role="line"
         id="tspan3235-7"
         x="158.5896"
         y="292.543">C</tspan></text>
    <text
       xml:space="preserve"
       style="font-size:40px;font-style:normal;font-weight:normal;line-height:125%;letter-spacing:0px;word-spacing:0px;fill:#f9f9f9;fill-opacity:1;stroke:none;font-family:Bitstream Vera Sans"
       x="112.26215"
       y="291.72882"
       id="text3283"
       sodipodi:linespacing="125%"><tspan
         sodipodi:role="line"
         id="tspan3285"
         x="112.26215"
         y="291.72882">B</tspan></text>
    <text
       xml:space="preserve"
       style="font-size:40px;font-style:normal;font-weight:normal;line-height:125%;letter-spacing:0px;word-spacing:0px;fill:#f9f9f9;fill-opacity:1;stroke:none;display:inline;font-family:Bitstream Vera Sans"
       x="413.39777"
       y="291.03516"
       id="text3283-8"
       sodipodi:linespacing="125%"><tspan
         sodipodi:role="line"
         id="tspan3285-4"
         x="413.39777"
         y="291.03516">B</tspan></text>
    <text
       xml:space="preserve"
       style="font-size:40px;font-style:normal;font-weight:normal;line-height:125%;letter-spacing:0px;word-spacing:0px;fill:#000000;fill-opacity:1;stroke:none;font-family:Bitstream Vera Sans"
       x="255.79237"
       y="191.18085"
       id="text3464"
       sodipodi:linespacing="125%"><tspan
         sodipodi:role="line"
         id="tspan3466"
         x="255.79237"
         y="191.18085">m</tspan></text>
    <text
       xml:space="preserve"
       style="font-size:40px;font-style:normal;font-weight:normal;line-height:125%;letter-spacing:0px;word-spacing:0px;fill:#000000;fill-opacity:1;stroke:none;font-family:Bitstream Vera Sans"
       x="259.61081"
       y="241.58426"
       id="text3468"
       sodipodi:linespacing="125%"><tspan
         sodipodi:role="line"
         id="tspan3470"
         x="259.61081"
         y="241.58426">M</tspan></text>
  </g>
</svg>
